<?xml version="1.0" encoding="UTF-8" standalone="no"?>
<!DOCTYPE svg PUBLIC "-//W3C//DTD SVG 1.1//EN"
 "http://www.w3.org/Graphics/SVG/1.1/DTD/svg11.dtd">
<!-- Generated by graphviz version 3.0.0 (20220226.1711)
 -->
<!-- Title: dependencies Pages: 1 -->
<svg width="1801pt" height="247pt"
 viewBox="0.00 0.00 1801.00 246.80" xmlns="http://www.w3.org/2000/svg" xmlns:xlink="http://www.w3.org/1999/xlink">
<g id="graph0" class="graph" transform="scale(1 1) rotate(0) translate(4 242.8)">
<title>dependencies</title>
<polygon fill="white" stroke="transparent" points="-4,4 -4,-242.8 1797,-242.8 1797,4 -4,4"/>
<text text-anchor="middle" x="896.5" y="-8.2" font-family="sans-serif" font-size="14.00">dependencies</text>
<g id="clust1" class="cluster">
<title>cluster_AppModule</title>
<polygon fill="none" stroke="black" stroke-dasharray="1,5" points="8,-32.8 8,-230.8 1785,-230.8 1785,-32.8 8,-32.8"/>
</g>
<g id="clust12" class="cluster">
<title>cluster_AppModule_imports</title>
<polygon fill="none" stroke="black" points="1633,-40.8 1633,-92.8 1777,-92.8 1777,-40.8 1633,-40.8"/>
</g>
<g id="clust14" class="cluster">
<title>cluster_AppModule_bootstrap</title>
<polygon fill="none" stroke="black" points="873,-170.8 873,-222.8 997,-222.8 997,-170.8 873,-170.8"/>
</g>
<g id="clust2" class="cluster">
<title>cluster_AppModule_declarations</title>
<polygon fill="none" stroke="black" points="16,-40.8 16,-92.8 1625,-92.8 1625,-40.8 16,-40.8"/>
</g>
<!-- AppComponent -->
<g id="node1" class="node">
<title>AppComponent</title>
<polygon fill="#ffffb3" stroke="black" points="1616.94,-84.8 1511.06,-84.8 1511.06,-48.8 1616.94,-48.8 1616.94,-84.8"/>
<text text-anchor="middle" x="1564" y="-62.6" font-family="Times,serif" font-size="14.00">AppComponent</text>
</g>
<!-- AppModule -->
<g id="node10" class="node">
<title>AppModule</title>
<polygon fill="#8dd3c7" stroke="black" points="976.66,-149.8 973.66,-153.8 952.66,-153.8 949.66,-149.8 893.34,-149.8 893.34,-113.8 976.66,-113.8 976.66,-149.8"/>
<text text-anchor="middle" x="935" y="-127.6" font-family="Times,serif" font-size="14.00">AppModule</text>
</g>
<!-- AppComponent&#45;&gt;AppModule -->
<g id="edge1" class="edge">
<title>AppComponent&#45;&gt;AppModule</title>
<path fill="none" stroke="black" d="M1564,-84.93C1564,-105.37 1564,-135.8 1564,-135.8 1564,-135.8 986.76,-135.8 986.76,-135.8"/>
<polygon fill="black" stroke="black" points="986.76,-132.3 976.76,-135.8 986.76,-139.3 986.76,-132.3"/>
</g>
<!-- ErrorConectionComponent -->
<g id="node2" class="node">
<title>ErrorConectionComponent</title>
<polygon fill="#ffffb3" stroke="black" points="1493.41,-84.8 1324.59,-84.8 1324.59,-48.8 1493.41,-48.8 1493.41,-84.8"/>
<text text-anchor="middle" x="1409" y="-62.6" font-family="Times,serif" font-size="14.00">ErrorConectionComponent</text>
</g>
<!-- ErrorConectionComponent&#45;&gt;AppModule -->
<g id="edge2" class="edge">
<title>ErrorConectionComponent&#45;&gt;AppModule</title>
<path fill="none" stroke="black" d="M1409,-85.07C1409,-103.36 1409,-128.8 1409,-128.8 1409,-128.8 987.06,-128.8 987.06,-128.8"/>
<polygon fill="black" stroke="black" points="987.06,-125.3 977.06,-128.8 987.06,-132.3 987.06,-125.3"/>
</g>
<!-- FechaUtilizacionComponent -->
<g id="node3" class="node">
<title>FechaUtilizacionComponent</title>
<polygon fill="#ffffb3" stroke="black" points="1306.46,-84.8 1129.54,-84.8 1129.54,-48.8 1306.46,-48.8 1306.46,-84.8"/>
<text text-anchor="middle" x="1218" y="-62.6" font-family="Times,serif" font-size="14.00">FechaUtilizacionComponent</text>
</g>
<!-- FechaUtilizacionComponent&#45;&gt;AppModule -->
<g id="edge3" class="edge">
<title>FechaUtilizacionComponent&#45;&gt;AppModule</title>
<path fill="none" stroke="black" d="M1218,-84.81C1218,-100.85 1218,-121.8 1218,-121.8 1218,-121.8 986.76,-121.8 986.76,-121.8"/>
<polygon fill="black" stroke="black" points="986.76,-118.3 976.76,-121.8 986.76,-125.3 986.76,-118.3"/>
</g>
<!-- FormPagVacacComponent -->
<g id="node4" class="node">
<title>FormPagVacacComponent</title>
<polygon fill="#ffffb3" stroke="black" points="1111.64,-84.8 944.36,-84.8 944.36,-48.8 1111.64,-48.8 1111.64,-84.8"/>
<text text-anchor="middle" x="1028" y="-62.6" font-family="Times,serif" font-size="14.00">FormPagVacacComponent</text>
</g>
<!-- FormPagVacacComponent&#45;&gt;AppModule -->
<g id="edge4" class="edge">
<title>FormPagVacacComponent&#45;&gt;AppModule</title>
<path fill="none" stroke="black" d="M960.51,-84.91C960.51,-84.91 960.51,-103.79 960.51,-103.79"/>
<polygon fill="black" stroke="black" points="957.01,-103.79 960.51,-113.79 964.01,-103.79 957.01,-103.79"/>
</g>
<!-- FormSoliVacacComponent -->
<g id="node5" class="node">
<title>FormSoliVacacComponent</title>
<polygon fill="#ffffb3" stroke="black" points="926.7,-84.8 757.3,-84.8 757.3,-48.8 926.7,-48.8 926.7,-84.8"/>
<text text-anchor="middle" x="842" y="-62.6" font-family="Times,serif" font-size="14.00">FormSoliVacacComponent</text>
</g>
<!-- FormSoliVacacComponent&#45;&gt;AppModule -->
<g id="edge5" class="edge">
<title>FormSoliVacacComponent&#45;&gt;AppModule</title>
<path fill="none" stroke="black" d="M909.88,-84.91C909.88,-84.91 909.88,-103.79 909.88,-103.79"/>
<polygon fill="black" stroke="black" points="906.38,-103.79 909.88,-113.79 913.38,-103.79 906.38,-103.79"/>
</g>
<!-- HistorialVacacionesComponent -->
<g id="node6" class="node">
<title>HistorialVacacionesComponent</title>
<polygon fill="#ffffb3" stroke="black" points="739.34,-84.8 544.66,-84.8 544.66,-48.8 739.34,-48.8 739.34,-84.8"/>
<text text-anchor="middle" x="642" y="-62.6" font-family="Times,serif" font-size="14.00">HistorialVacacionesComponent</text>
</g>
<!-- HistorialVacacionesComponent&#45;&gt;AppModule -->
<g id="edge6" class="edge">
<title>HistorialVacacionesComponent&#45;&gt;AppModule</title>
<path fill="none" stroke="black" d="M642,-84.81C642,-100.85 642,-121.8 642,-121.8 642,-121.8 883.33,-121.8 883.33,-121.8"/>
<polygon fill="black" stroke="black" points="883.33,-125.3 893.33,-121.8 883.33,-118.3 883.33,-125.3"/>
</g>
<!-- MostrarPDFComponent -->
<g id="node7" class="node">
<title>MostrarPDFComponent</title>
<polygon fill="#ffffb3" stroke="black" points="526.84,-84.8 375.16,-84.8 375.16,-48.8 526.84,-48.8 526.84,-84.8"/>
<text text-anchor="middle" x="451" y="-62.6" font-family="Times,serif" font-size="14.00">MostrarPDFComponent</text>
</g>
<!-- MostrarPDFComponent&#45;&gt;AppModule -->
<g id="edge7" class="edge">
<title>MostrarPDFComponent&#45;&gt;AppModule</title>
<path fill="none" stroke="black" d="M451,-85.07C451,-103.36 451,-128.8 451,-128.8 451,-128.8 883.32,-128.8 883.32,-128.8"/>
<polygon fill="black" stroke="black" points="883.32,-132.3 893.32,-128.8 883.32,-125.3 883.32,-132.3"/>
</g>
<!-- SolicPagVacacComponent -->
<g id="node8" class="node">
<title>SolicPagVacacComponent</title>
<polygon fill="#ffffb3" stroke="black" points="357.08,-84.8 190.92,-84.8 190.92,-48.8 357.08,-48.8 357.08,-84.8"/>
<text text-anchor="middle" x="274" y="-62.6" font-family="Times,serif" font-size="14.00">SolicPagVacacComponent</text>
</g>
<!-- SolicPagVacacComponent&#45;&gt;AppModule -->
<g id="edge8" class="edge">
<title>SolicPagVacacComponent&#45;&gt;AppModule</title>
<path fill="none" stroke="black" d="M274,-84.93C274,-105.37 274,-135.8 274,-135.8 274,-135.8 883.15,-135.8 883.15,-135.8"/>
<polygon fill="black" stroke="black" points="883.15,-139.3 893.15,-135.8 883.15,-132.3 883.15,-139.3"/>
</g>
<!-- SolicVacaciComponent -->
<g id="node9" class="node">
<title>SolicVacaciComponent</title>
<polygon fill="#ffffb3" stroke="black" points="172.47,-84.8 23.53,-84.8 23.53,-48.8 172.47,-48.8 172.47,-84.8"/>
<text text-anchor="middle" x="98" y="-62.6" font-family="Times,serif" font-size="14.00">SolicVacaciComponent</text>
</g>
<!-- SolicVacaciComponent&#45;&gt;AppModule -->
<g id="edge9" class="edge">
<title>SolicVacaciComponent&#45;&gt;AppModule</title>
<path fill="none" stroke="black" d="M98,-84.81C98,-107.29 98,-142.8 98,-142.8 98,-142.8 883.21,-142.8 883.21,-142.8"/>
<polygon fill="black" stroke="black" points="883.21,-146.3 893.21,-142.8 883.21,-139.3 883.21,-146.3"/>
</g>
<!-- AppComponent  -->
<g id="node12" class="node">
<title>AppComponent </title>
<polygon fill="#80b1d3" stroke="black" points="989.44,-214.8 880.56,-214.8 880.56,-178.8 989.44,-178.8 989.44,-214.8"/>
<text text-anchor="middle" x="935" y="-192.6" font-family="Times,serif" font-size="14.00">AppComponent </text>
</g>
<!-- AppModule&#45;&gt;AppComponent  -->
<g id="edge11" class="edge">
<title>AppModule&#45;&gt;AppComponent </title>
<path fill="none" stroke="black" stroke-dasharray="1,5" d="M935,-149.91C935,-149.91 935,-168.79 935,-168.79"/>
<polygon fill="black" stroke="black" points="931.5,-168.79 935,-178.79 938.5,-168.79 931.5,-168.79"/>
</g>
<!-- AppRoutingModule -->
<g id="node11" class="node">
<title>AppRoutingModule</title>
<polygon fill="#8dd3c7" stroke="black" points="1769.28,-84.8 1766.28,-88.8 1745.28,-88.8 1742.28,-84.8 1640.72,-84.8 1640.72,-48.8 1769.28,-48.8 1769.28,-84.8"/>
<text text-anchor="middle" x="1705" y="-62.6" font-family="Times,serif" font-size="14.00">AppRoutingModule</text>
</g>
<!-- AppRoutingModule&#45;&gt;AppModule -->
<g id="edge10" class="edge">
<title>AppRoutingModule&#45;&gt;AppModule</title>
<path fill="none" stroke="black" d="M1705,-84.81C1705,-107.29 1705,-142.8 1705,-142.8 1705,-142.8 986.67,-142.8 986.67,-142.8"/>
<polygon fill="black" stroke="black" points="986.67,-139.3 976.67,-142.8 986.67,-146.3 986.67,-139.3"/>
</g>
</g>
</svg>
