<?xml version="1.0" encoding="UTF-8" standalone="no"?>
<!DOCTYPE svg PUBLIC "-//W3C//DTD SVG 1.1//EN"
 "http://www.w3.org/Graphics/SVG/1.1/DTD/svg11.dtd">
<!-- Generated by graphviz version 3.0.0 (20220226.1711)
 -->
<!-- Title: dependencies Pages: 1 -->
<svg width="1801pt" height="247pt"
 viewBox="0.00 0.00 1801.00 246.80" xmlns="http://www.w3.org/2000/svg" xmlns:xlink="http://www.w3.org/1999/xlink">
<g id="graph0" class="graph" transform="scale(1 1) rotate(0) translate(4 242.8)">
<title>dependencies</title>
<polygon fill="white" stroke="transparent" points="-4,4 -4,-242.8 1797,-242.8 1797,4 -4,4"/>
<text text-anchor="middle" x="896.5" y="-8.2" font-family="sans-serif" font-size="14.00">dependencies</text>
<g id="clust1" class="cluster">
<title>cluster_AppModule</title>
<polygon fill="none" stroke="black" stroke-dasharray="1,5" points="8,-32.8 8,-230.8 1785,-230.8 1785,-32.8 8,-32.8"/>
</g>
<g id="clust2" class="cluster">
<title>cluster_AppModule_declarations</title>
<polygon fill="none" stroke="black" points="168,-40.8 168,-92.8 1777,-92.8 1777,-40.8 168,-40.8"/>
</g>
<g id="clust12" class="cluster">
<title>cluster_AppModule_imports</title>
<polygon fill="none" stroke="black" points="16,-40.8 16,-92.8 160,-92.8 160,-40.8 16,-40.8"/>
</g>
<g id="clust14" class="cluster">
<title>cluster_AppModule_bootstrap</title>
<polygon fill="none" stroke="black" points="832,-170.8 832,-222.8 956,-222.8 956,-170.8 832,-170.8"/>
</g>
<!-- AppComponent -->
<g id="node1" class="node">
<title>AppComponent</title>
<polygon fill="#ffffb3" stroke="black" points="1768.94,-84.8 1663.06,-84.8 1663.06,-48.8 1768.94,-48.8 1768.94,-84.8"/>
<text text-anchor="middle" x="1716" y="-62.6" font-family="Times,serif" font-size="14.00">AppComponent</text>
</g>
<!-- AppModule -->
<g id="node10" class="node">
<title>AppModule</title>
<polygon fill="#8dd3c7" stroke="black" points="935.66,-149.8 932.66,-153.8 911.66,-153.8 908.66,-149.8 852.34,-149.8 852.34,-113.8 935.66,-113.8 935.66,-149.8"/>
<text text-anchor="middle" x="894" y="-127.6" font-family="Times,serif" font-size="14.00">AppModule</text>
</g>
<!-- AppComponent&#45;&gt;AppModule -->
<g id="edge1" class="edge">
<title>AppComponent&#45;&gt;AppModule</title>
<path fill="none" stroke="black" d="M1716,-84.81C1716,-107.29 1716,-142.8 1716,-142.8 1716,-142.8 945.89,-142.8 945.89,-142.8"/>
<polygon fill="black" stroke="black" points="945.89,-139.3 935.89,-142.8 945.89,-146.3 945.89,-139.3"/>
</g>
<!-- ErrorConectionComponent -->
<g id="node2" class="node">
<title>ErrorConectionComponent</title>
<polygon fill="#ffffb3" stroke="black" points="1645.41,-84.8 1476.59,-84.8 1476.59,-48.8 1645.41,-48.8 1645.41,-84.8"/>
<text text-anchor="middle" x="1561" y="-62.6" font-family="Times,serif" font-size="14.00">ErrorConectionComponent</text>
</g>
<!-- ErrorConectionComponent&#45;&gt;AppModule -->
<g id="edge2" class="edge">
<title>ErrorConectionComponent&#45;&gt;AppModule</title>
<path fill="none" stroke="black" d="M1561,-84.93C1561,-105.37 1561,-135.8 1561,-135.8 1561,-135.8 945.72,-135.8 945.72,-135.8"/>
<polygon fill="black" stroke="black" points="945.72,-132.3 935.72,-135.8 945.72,-139.3 945.72,-132.3"/>
</g>
<!-- FechaUtilizacionComponent -->
<g id="node3" class="node">
<title>FechaUtilizacionComponent</title>
<polygon fill="#ffffb3" stroke="black" points="1458.46,-84.8 1281.54,-84.8 1281.54,-48.8 1458.46,-48.8 1458.46,-84.8"/>
<text text-anchor="middle" x="1370" y="-62.6" font-family="Times,serif" font-size="14.00">FechaUtilizacionComponent</text>
</g>
<!-- FechaUtilizacionComponent&#45;&gt;AppModule -->
<g id="edge3" class="edge">
<title>FechaUtilizacionComponent&#45;&gt;AppModule</title>
<path fill="none" stroke="black" d="M1370,-85.07C1370,-103.36 1370,-128.8 1370,-128.8 1370,-128.8 945.82,-128.8 945.82,-128.8"/>
<polygon fill="black" stroke="black" points="945.82,-125.3 935.82,-128.8 945.82,-132.3 945.82,-125.3"/>
</g>
<!-- FormPagVacacComponent -->
<g id="node4" class="node">
<title>FormPagVacacComponent</title>
<polygon fill="#ffffb3" stroke="black" points="1263.64,-84.8 1096.36,-84.8 1096.36,-48.8 1263.64,-48.8 1263.64,-84.8"/>
<text text-anchor="middle" x="1180" y="-62.6" font-family="Times,serif" font-size="14.00">FormPagVacacComponent</text>
</g>
<!-- FormPagVacacComponent&#45;&gt;AppModule -->
<g id="edge4" class="edge">
<title>FormPagVacacComponent&#45;&gt;AppModule</title>
<path fill="none" stroke="black" d="M1180,-84.81C1180,-100.85 1180,-121.8 1180,-121.8 1180,-121.8 945.89,-121.8 945.89,-121.8"/>
<polygon fill="black" stroke="black" points="945.89,-118.3 935.89,-121.8 945.89,-125.3 945.89,-118.3"/>
</g>
<!-- FormSoliVacacComponent -->
<g id="node5" class="node">
<title>FormSoliVacacComponent</title>
<polygon fill="#ffffb3" stroke="black" points="1078.7,-84.8 909.3,-84.8 909.3,-48.8 1078.7,-48.8 1078.7,-84.8"/>
<text text-anchor="middle" x="994" y="-62.6" font-family="Times,serif" font-size="14.00">FormSoliVacacComponent</text>
</g>
<!-- FormSoliVacacComponent&#45;&gt;AppModule -->
<g id="edge5" class="edge">
<title>FormSoliVacacComponent&#45;&gt;AppModule</title>
<path fill="none" stroke="black" d="M922.62,-84.91C922.62,-84.91 922.62,-103.79 922.62,-103.79"/>
<polygon fill="black" stroke="black" points="919.12,-103.79 922.62,-113.79 926.12,-103.79 919.12,-103.79"/>
</g>
<!-- HistorialVacacionesComponent -->
<g id="node6" class="node">
<title>HistorialVacacionesComponent</title>
<polygon fill="#ffffb3" stroke="black" points="891.34,-84.8 696.66,-84.8 696.66,-48.8 891.34,-48.8 891.34,-84.8"/>
<text text-anchor="middle" x="794" y="-62.6" font-family="Times,serif" font-size="14.00">HistorialVacacionesComponent</text>
</g>
<!-- HistorialVacacionesComponent&#45;&gt;AppModule -->
<g id="edge6" class="edge">
<title>HistorialVacacionesComponent&#45;&gt;AppModule</title>
<path fill="none" stroke="black" d="M871.79,-84.91C871.79,-84.91 871.79,-103.79 871.79,-103.79"/>
<polygon fill="black" stroke="black" points="868.3,-103.79 871.79,-113.79 875.3,-103.79 868.3,-103.79"/>
</g>
<!-- MostrarPDFComponent -->
<g id="node7" class="node">
<title>MostrarPDFComponent</title>
<polygon fill="#ffffb3" stroke="black" points="678.84,-84.8 527.16,-84.8 527.16,-48.8 678.84,-48.8 678.84,-84.8"/>
<text text-anchor="middle" x="603" y="-62.6" font-family="Times,serif" font-size="14.00">MostrarPDFComponent</text>
</g>
<!-- MostrarPDFComponent&#45;&gt;AppModule -->
<g id="edge7" class="edge">
<title>MostrarPDFComponent&#45;&gt;AppModule</title>
<path fill="none" stroke="black" d="M603,-84.81C603,-100.85 603,-121.8 603,-121.8 603,-121.8 842.31,-121.8 842.31,-121.8"/>
<polygon fill="black" stroke="black" points="842.31,-125.3 852.31,-121.8 842.31,-118.3 842.31,-125.3"/>
</g>
<!-- SolicPagVacacComponent -->
<g id="node8" class="node">
<title>SolicPagVacacComponent</title>
<polygon fill="#ffffb3" stroke="black" points="509.08,-84.8 342.92,-84.8 342.92,-48.8 509.08,-48.8 509.08,-84.8"/>
<text text-anchor="middle" x="426" y="-62.6" font-family="Times,serif" font-size="14.00">SolicPagVacacComponent</text>
</g>
<!-- SolicPagVacacComponent&#45;&gt;AppModule -->
<g id="edge8" class="edge">
<title>SolicPagVacacComponent&#45;&gt;AppModule</title>
<path fill="none" stroke="black" d="M426,-85.07C426,-103.36 426,-128.8 426,-128.8 426,-128.8 842.06,-128.8 842.06,-128.8"/>
<polygon fill="black" stroke="black" points="842.06,-132.3 852.06,-128.8 842.06,-125.3 842.06,-132.3"/>
</g>
<!-- SolicVacaciComponent -->
<g id="node9" class="node">
<title>SolicVacaciComponent</title>
<polygon fill="#ffffb3" stroke="black" points="324.47,-84.8 175.53,-84.8 175.53,-48.8 324.47,-48.8 324.47,-84.8"/>
<text text-anchor="middle" x="250" y="-62.6" font-family="Times,serif" font-size="14.00">SolicVacaciComponent</text>
</g>
<!-- SolicVacaciComponent&#45;&gt;AppModule -->
<g id="edge9" class="edge">
<title>SolicVacaciComponent&#45;&gt;AppModule</title>
<path fill="none" stroke="black" d="M250,-84.93C250,-105.37 250,-135.8 250,-135.8 250,-135.8 842.24,-135.8 842.24,-135.8"/>
<polygon fill="black" stroke="black" points="842.24,-139.3 852.24,-135.8 842.24,-132.3 842.24,-139.3"/>
</g>
<!-- AppComponent  -->
<g id="node12" class="node">
<title>AppComponent </title>
<polygon fill="#80b1d3" stroke="black" points="948.44,-214.8 839.56,-214.8 839.56,-178.8 948.44,-178.8 948.44,-214.8"/>
<text text-anchor="middle" x="894" y="-192.6" font-family="Times,serif" font-size="14.00">AppComponent </text>
</g>
<!-- AppModule&#45;&gt;AppComponent  -->
<g id="edge11" class="edge">
<title>AppModule&#45;&gt;AppComponent </title>
<path fill="none" stroke="black" stroke-dasharray="1,5" d="M894,-149.91C894,-149.91 894,-168.79 894,-168.79"/>
<polygon fill="black" stroke="black" points="890.5,-168.79 894,-178.79 897.5,-168.79 890.5,-168.79"/>
</g>
<!-- AppRoutingModule -->
<g id="node11" class="node">
<title>AppRoutingModule</title>
<polygon fill="#8dd3c7" stroke="black" points="152.28,-84.8 149.28,-88.8 128.28,-88.8 125.28,-84.8 23.72,-84.8 23.72,-48.8 152.28,-48.8 152.28,-84.8"/>
<text text-anchor="middle" x="88" y="-62.6" font-family="Times,serif" font-size="14.00">AppRoutingModule</text>
</g>
<!-- AppRoutingModule&#45;&gt;AppModule -->
<g id="edge10" class="edge">
<title>AppRoutingModule&#45;&gt;AppModule</title>
<path fill="none" stroke="black" d="M88,-84.81C88,-107.29 88,-142.8 88,-142.8 88,-142.8 842.08,-142.8 842.08,-142.8"/>
<polygon fill="black" stroke="black" points="842.08,-146.3 852.08,-142.8 842.08,-139.3 842.08,-146.3"/>
</g>
</g>
</svg>
